<svg height="511pt" viewBox="1 -19 511.999 511" width="511pt" xmlns="http://www.w3.org/2000/svg"><path d="m215 288.167969h23c5.523438 0 10-4.476563 10-10 0-5.523438-4.476562-10-10-10h-23c-5.523438 0-10 4.476562-10 10 0 5.523437 4.476562 10 10 10zm0 0"/><path d="m459.894531 388.25c-4.277343-19.28125-21.503906-33.75-42.054687-33.75h-71.339844c-10.753906 0-19.5-8.75-19.5-19.5v-10.5h101c16.542969 0 30-13.457031 30-30v-264c0-16.542969-13.457031-30-30-30h-398c-16.542969 0-30 13.457031-30 30v264c0 16.542969 13.457031 30 30 30h150v88h-98.589844c-15.941406 0-28.910156 12.96875-28.910156 28.910156v21.089844c0 5.523438 4.476562 10 10 10h328c3.691406 0 6.90625-2.003906 8.636719-4.976562 4.03125 3.113281 9.078125 4.976562 14.554687 4.976562h74.46875c13.144532 0 23.839844-10.695312 23.839844-23.839844 0-30.628906-22.664062-56.058594-52.105469-60.410156zm-429.894531-367.75h398c5.515625 0 10 4.484375 10 10v202h-418v-202c0-5.515625 4.484375-10 10-10zm-10 274v-42h418v42c0 5.511719-4.484375 10-10 10h-398c-5.515625 0-10-4.488281-10-10zm180 30h58v88h-58zm180.5 128h-308v-11.089844c0-4.914062 3.996094-8.910156 8.910156-8.910156h19.589844v.5c0 5.523438 4.476562 10 10 10s10-4.476562 10-10v-.5h18.5v.5c0 5.523438 4.476562 10 10 10s10-4.476562 10-10v-.5h18.5v.5c0 5.523438 4.476562 10 10 10s10-4.476562 10-10v-.5h18.5v.5c0 5.523438 4.476562 10 10 10s10-4.476562 10-10v-.5h18.5v.5c0 5.523438 4.476562 10 10 10s10-4.476562 10-10v-.5h18.5v.5c0 5.523438 4.476562 10 10 10s10-4.476562 10-10v-.5h18.5v.5c0 5.523438 4.476562 10 10 10s10-4.476562 10-10v-.5h19.589844c4.914062 0 8.910156 3.996094 8.910156 8.910156zm14.410156-28.148438c-5.265625-7.179687-13.753906-11.851562-23.320312-11.851562h-93.589844v-88h29v10.5c0 21.78125 17.71875 39.5 39.5 39.5h71.339844c9.59375 0 17.839844 5.882812 21.320312 14.234375-19.890625 3.898437-36.347656 17.480469-44.25 35.617187zm93.25 28.148438h-74.46875c-2.117187 0-3.839844-1.722656-3.839844-3.839844 0-22.648437 18.425782-41.074218 41.074219-41.074218 22.648438 0 41.074219 18.425781 41.074219 41.074218 0 2.117188-1.722656 3.839844-3.839844 3.839844zm0 0"/><path d="m268 88.167969h126c5.523438 0 10-4.476563 10-10 0-5.523438-4.476562-10-10-10h-126c-5.523438 0-10 4.476562-10 10 0 5.523437 4.476562 10 10 10zm0 0"/><path d="m268 136.167969h126c5.523438 0 10-4.476563 10-10 0-5.523438-4.476562-10-10-10h-126c-5.523438 0-10 4.476562-10 10 0 5.523437 4.476562 10 10 10zm0 0"/><path d="m268 184.167969h58.332031c5.523438 0 10-4.476563 10-10 0-5.523438-4.476562-10-10-10h-58.332031c-5.523438 0-10 4.476562-10 10 0 5.523437 4.476562 10 10 10zm0 0"/><path d="m366.328125 164.167969c-2.628906 0-5.207031 1.0625-7.066406 2.929687-1.863281 1.863282-2.933594 4.433594-2.933594 7.070313 0 2.632812 1.070313 5.210937 2.933594 7.070312 1.859375 1.859375 4.4375 2.929688 7.066406 2.929688 2.640625 0 5.210937-1.070313 7.070313-2.929688 1.871093-1.859375 2.929687-4.4375 2.929687-7.070312 0-2.636719-1.058594-5.207031-2.929687-7.070313-1.859376-1.867187-4.429688-2.929687-7.070313-2.929687zm0 0"/><path d="m86.632812 193.667969c13.039063 0 24.152344-8.363281 28.28125-20h42.167969c4.128907 11.636719 15.242188 20 28.277344 20 16.542969 0 30-13.460938 30-30 0-16.542969-13.457031-30-30-30-1.871094 0-3.699219.179687-5.476563.507812l-21.09375-36.535156c4.488282-5.242187 7.207032-12.046875 7.207032-19.476563 0-16.539062-13.457032-30-30-30-16.542969 0-30 13.460938-30 30 0 7.429688 2.722656 14.230469 7.210937 19.476563l-21.09375 36.535156c-1.777343-.328125-3.609375-.507812-5.480469-.507812-16.542968 0-30 13.457031-30 30 0 16.539062 13.460938 30 30 30zm49.363282-85.5c1.875 0 3.703125-.183594 5.480468-.511719l21.09375 36.535156c-2.371093 2.769532-4.246093 5.972656-5.488281 9.476563h-42.167969c-1.242187-3.503907-3.117187-6.707031-5.488281-9.476563l21.09375-36.535156c1.777344.328125 3.605469.511719 5.476563.511719zm59.363281 55.5c0 5.511719-4.484375 10-10 10-5.511719 0-10-4.488281-10-10 0-5.515625 4.488281-10 10-10 5.515625 0 10 4.484375 10 10zm-59.363281-95.5c5.515625 0 10 4.484375 10 10 0 5.511719-4.484375 10-10 10-5.511719 0-10-4.488281-10-10 0-5.515625 4.488281-10 10-10zm-49.363282 85.5c5.515626 0 10 4.484375 10 10 0 5.511719-4.484374 10-10 10-5.511718 0-10-4.488281-10-10 0-5.515625 4.488282-10 10-10zm0 0"/></svg>