<svg id="Laag_1" data-name="Laag 1" xmlns="http://www.w3.org/2000/svg" viewBox="0 0 50.01 49.85"><defs><style>.cls-1{fill:#efb502;}.cls-2{fill:#fff;}.cls-3{fill:#bb023a;}</style></defs><title>logo</title><ellipse class="cls-1" cx="25" cy="24.92" rx="25" ry="24.93"/><path d="M24.17.24c-.92,0-1.78.12-1.81.14a5.65,5.65,0,0,0,.1.76c.07.39.45,2.51.83,4.7,1,5.81,1.68,9.39,1.71,9.35S27.65.45,27.6.39A25.45,25.45,0,0,0,24.17.24Zm1.1,1a1.16,1.16,0,0,1,.59.52,1.29,1.29,0,0,1,0,.73.92.92,0,0,1-.75.54.74.74,0,0,1-.7-.21.84.84,0,0,1-.33-.7.94.94,0,0,1,.59-.89A.74.74,0,0,1,25.27,1.21Z" transform="translate(0 -0.19)"/><path d="M21,.55c-.68.11-.62.09-.65.29s0,.3-.05.43l0,.25-.35,0a1.88,1.88,0,0,0-.55.12c-.23.1-.5.33-.5.42s.05.09.72.19c.83.14,1,.19,1.17.4a1.12,1.12,0,0,1,.15,1.2c-.23.5-.8.77-1.82.84l-.45,0,0-.11a1.5,1.5,0,0,0,0-.35V4L19,4l.56-.12a1.83,1.83,0,0,0,.67-.39c0-.08-.32-.23-.58-.28L19,3.08c-.6-.09-.76-.2-.91-.58a1.34,1.34,0,0,1,.15-1.07.87.87,0,0,0,.14-.34,13,13,0,0,0-1.93.72s.23.48.5,1,.69,1.46.93,2,.71,1.65,1.07,2.45,1,2.3,1.48,3.34c1.14,2.61,2.13,4.75,2.17,4.71s0-.59,0-1.29c-.12-2.23-.19-3.38-.46-7.19C21.91,4.72,21.63.6,21.63.51S21.36.48,21,.55Z" transform="translate(0 -0.19)"/><path d="M28.26,1.3c-.05,1.43-.14,2.83-.4,6.38-.21,2.85-.31,4.54-.37,5.79a9.84,9.84,0,0,0,0,1.71,16.67,16.67,0,0,0,1-2c.22-.51,1.21-2.74,2.19-5q2.87-6.47,2.83-6.49l-.58-.24-.56-.22-.27.37c-.19.27-.29.37-.34.35a2,2,0,0,0-1.37-.2l-.13.05.15.15c.09.09.33.29.55.46a7.44,7.44,0,0,1,.59.5.49.49,0,0,1,.19.49,1.1,1.1,0,0,1-.63,1.06,1.17,1.17,0,0,1-.64.11,3.16,3.16,0,0,1-1.39-.39l-.16-.07.16-.31.16-.32.5.14a7.63,7.63,0,0,0,.76.18c.25,0,.26,0,.26-.08,0-.3-.22-.55-.82-1a1,1,0,0,1-.5-1A1.38,1.38,0,0,1,30,1c.18-.14.32-.26.31-.29a.32.32,0,0,0-.14,0l-.9-.11L28.39.48C28.29.48,28.29.49,28.26,1.3Z" transform="translate(0 -0.19)"/><path d="M14.91,2.33a5.54,5.54,0,0,0-.8.34s.06,0,.14,0a2.31,2.31,0,0,1,1.45.75A2,2,0,0,1,16.18,5,2,2,0,0,1,14.5,6.59,1.63,1.63,0,0,1,13,6.16a1.89,1.89,0,0,1-.6-1,3.43,3.43,0,0,1,.07-1.26,1.77,1.77,0,0,0,.06-.29,8.2,8.2,0,0,0-1.28.82l-.14.13.41.46c.23.25.68.81,1,1.24l1.21,1.58c.34.43,1.39,1.78,2.32,3,2.44,3.18,4.25,5.46,4.29,5.42s-1.16-3.89-2.91-9.33C16.76,5,16.16,3.08,16,2.71A2.18,2.18,0,0,0,15.76,2,7.4,7.4,0,0,0,14.91,2.33Z" transform="translate(0 -0.19)"/><path d="M34.17,2c-.1.16-4.61,14.31-4.57,14.34S38.84,4.55,38.84,4.46a13.76,13.76,0,0,0-1.45-1s0,.17.12.37a2.14,2.14,0,0,1,0,1.74,2.24,2.24,0,0,1-.83.87,2,2,0,0,1-2.36-.52,1.71,1.71,0,0,1-.48-1,2,2,0,0,1,1.6-2.14,1.77,1.77,0,0,1,.4-.07c.09,0,.13,0,.11,0S34.31,2,34.24,2,34.18,2,34.17,2Z" transform="translate(0 -0.19)"/><path d="M13.78,3.67a.86.86,0,0,0-.56.87A1.41,1.41,0,0,0,14,5.73a.91.91,0,0,0,1.19-.4.76.76,0,0,0,.08-.5,1.35,1.35,0,0,0-.7-1.13A.8.8,0,0,0,13.78,3.67Z" transform="translate(0 -0.19)"/><path d="M35.47,3.66a1.46,1.46,0,0,0-.72,1.46.85.85,0,0,0,.49.59,1,1,0,0,0,1.27-.42c.52-.75.19-1.63-.62-1.69A.7.7,0,0,0,35.47,3.66Z" transform="translate(0 -0.19)"/><path d="M10.23,5c-.16.13-.33.24-.36.26s.17.38,1.47,2.11l.59.81s-.13.17-.31.32-.34.27-.52.24-.64-.17-1.2-.35-1-.32-1-.31A5.94,5.94,0,0,0,9.81,9.2l.47.48L10,10l-.3.27L8.41,9c-.7-.67-1.29-1.23-1.32-1.23a2.36,2.36,0,0,0-.53.63,12,12,0,0,0,1.09.89c1.45,1.12,2.4,1.87,5.83,4.6,3.85,3.06,4.91,3.89,4.94,3.87s-1.45-2.47-3-4.89c-2.48-4-4-6.48-4.69-7.71a1.94,1.94,0,0,0-.21-.34Z" transform="translate(0 -0.19)"/><path d="M39.18,5.26c-.46.78-1.61,2.66-3,5-2.39,3.85-3.69,6-4.47,7.36-.1.18,2.26-1.65,5.94-4.59,2.6-2.08,4.24-3.36,5.28-4.13a5.83,5.83,0,0,0,.62-.49s-1.78-1.81-1.92-1.92l-.11-.08-.67.76c-.36.41-.76.86-.88,1l-.22.27.09.14a5.25,5.25,0,0,0,.5.55,4.24,4.24,0,0,1,.41.44,1.46,1.46,0,0,1-.25.3l-.25.24-.7-.62-.89-.78-.18-.16L39,7.78a13.87,13.87,0,0,0,1.63-2.09c-.11-.1-1.19-.84-1.22-.84A2.38,2.38,0,0,0,39.18,5.26Z" transform="translate(0 -0.19)"/><path d="M8.53,6.38a6.49,6.49,0,0,0-.5.48,7.56,7.56,0,0,0,1.05.39c1.24.41,1.33.43,1.28.35A20,20,0,0,0,9,6Z" transform="translate(0 -0.19)"/><path d="M5.71,9.31a21.39,21.39,0,0,0-2.32,3.3,4.11,4.11,0,0,0-.3.6c0,.12,13.6,6.31,13.67,6.25s-2.57-2.63-5.37-5.36C10,12.75,8.26,11,7.49,10.24L6.11,8.84Zm.58,1.87a1,1,0,0,1,.58.61,1,1,0,0,1-.51,1.08.64.64,0,0,1-.47.11.88.88,0,0,1-.84-.92.91.91,0,0,1,1.24-.88Z" transform="translate(0 -0.19)"/><path d="M43.43,9.24c-.4.48-1.65,1.73-5,5-3.53,3.46-5.38,5.31-5.37,5.32s.66-.27,1.44-.63l4-1.85c5-2.28,8.37-3.85,8.37-3.92s-.58-1-1-1.69c-.21-.34-.58-.87-.82-1.18a11,11,0,0,0-1.27-1.47A3.09,3.09,0,0,0,43.43,9.24Zm.86,1.92a1,1,0,0,1,.59.54,1.25,1.25,0,0,1,0,.81A.92.92,0,0,1,44,13a.83.83,0,0,1-.87-.94A.87.87,0,0,1,44.29,11.16Z" transform="translate(0 -0.19)"/><path d="M2.41,14.47c-.24.5-.55,1.21-.55,1.26a21.82,21.82,0,0,0,2.27.11c.85,0,1.56.05,1.57.06a8.33,8.33,0,0,1-.32.8l-.48.09-.47.07-.17.46c-.09.26-.17.48-.17.51a2,2,0,0,0,.29.33l.3.3-.13.5a3.55,3.55,0,0,0-.11.52s6.1,1.22,7.48,1.47c1.72.31,3.55.62,3.58.6a10.82,10.82,0,0,0-1.61-1.06C9.16,17.68,3,14,2.79,13.92S2.68,13.91,2.41,14.47Z" transform="translate(0 -0.19)"/><path d="M46.08,14.55c-.61.38-2.54,1.53-4.28,2.55-4.53,2.67-7.41,4.43-7.31,4.46s.78-.11,3-.52c3-.54,11.54-2.19,11.58-2.23a10,10,0,0,0-.43-1.64,1.17,1.17,0,0,0-.18-.26c-.09-.08-.1-.07-.59.09l-1.63.57c-.62.22-1.14.4-1.15.39s-.31-.79-.3-.8l1.67-.67,1.67-.68a15.76,15.76,0,0,0-.94-1.94S46.7,14.18,46.08,14.55Z" transform="translate(0 -0.19)"/><path d="M2.54,16.67a4.37,4.37,0,0,0,.93.71A2.09,2.09,0,0,0,3.62,17l.11-.34-.31,0-.64,0C2.47,16.59,2.46,16.59,2.54,16.67Z" transform="translate(0 -0.19)"/><path d="M1.41,16.83s-.16.51-.31,1a9.59,9.59,0,0,0-.28,1l.49.1,1.72.3c.69.13,1.27.22,1.29.21a12.11,12.11,0,0,0-1.76-1.73C1.33,16.66,1.43,16.74,1.41,16.83Z" transform="translate(0 -0.19)"/><path d="M.63,19.57s-.08.42-.18.9-.17.92-.16,1,.11,0,.33-.22.49-.36.81-.32a1.12,1.12,0,0,1,.69.56,1.79,1.79,0,0,0,.21.26,2.75,2.75,0,0,0,.43-.21A7.65,7.65,0,0,1,4,21a6.28,6.28,0,0,1-.16,1,1.78,1.78,0,0,1-.31.1,3.57,3.57,0,0,0-1.11.53c-.17.14-.2.17-.15.21L3,22.9l.7.12a7.43,7.43,0,0,1-.09.81s-.81,0-1.78-.09-1.77-.1-1.78-.09a4.71,4.71,0,0,0,0,.59l0,.57.32,0c1.09-.1,8.92-.51,12.53-.67A9.37,9.37,0,0,0,15.15,24c-.18-.1-1.92-.66-4.09-1.31l-5-1.51c-2.89-.88-5.32-1.6-5.4-1.6S.63,19.56.63,19.57Z" transform="translate(0 -0.19)"/><path d="M48,19.93,43.41,21.3,38.3,22.85c-1.74.53-3.28,1-3.5,1.14s0,.06.81.09c3.46.11,10.53.47,14,.71l.41,0,0-.42c0-.22,0-.41,0-.42l-1.23-.29-1.82-.42-.6-.14-.05-.38c0-.41,0-.58.08-.67s1-.54,2.18-1.17l1-.5,0-.17c0-.1,0-.3,0-.44s0-.25-.1-.24S48.65,19.73,48,19.93Z" transform="translate(0 -0.19)"/><path d="M49,21.67a17.31,17.31,0,0,0-1.73.82,24.39,24.39,0,0,0,2.6.51s-.07-.87-.13-1.34a.64.64,0,0,0-.08-.26A4.79,4.79,0,0,0,49,21.67Z" transform="translate(0 -0.19)"/><path d="M1,22.09a3.85,3.85,0,0,0-.27.48s.15.09.56.18c.2,0,.25,0,.34,0s.19-.49-.08-.82a1.31,1.31,0,0,0-.23-.24A1.43,1.43,0,0,0,1,22.09Z" transform="translate(0 -0.19)"/><path d="M49.74,25.49c-.17,0-4.72.27-8.67.47l-4.48.24L35,26.29c-.07,0-.07,0,0,0,.2.12,3.83,1.24,9.23,2.86l4.55,1.38a2.48,2.48,0,0,0,.58.14s.09-.29.17-.63l.16-.6-.39-.2a2.64,2.64,0,0,1-.39-.2l.09-.32c.17-.59.08-1.07-.18-1s-.3.17-.51.6c-.31.66-.54.86-1,.86a1.11,1.11,0,0,1-1-.69,1.76,1.76,0,0,1-.09-1,5.28,5.28,0,0,1,.31-1.05.83.83,0,0,1,.35.11c.23.1.3.16.29.21a2.7,2.7,0,0,0-.15,1.29c0,.12,0,.12.2.09s.35-.14.6-.65A4.18,4.18,0,0,1,48,27a1.12,1.12,0,0,1,.74-.26,1.64,1.64,0,0,1,.93.61c.24.25.33.33.31.25a3.76,3.76,0,0,1-.07-1.31c.06-.76.06-.79,0-.78Z" transform="translate(0 -0.19)"/><path d="M0,25.89a4.58,4.58,0,0,0,0,.59c0,.2,0,.2.17.2l.4,0,.27,0,.07.39.07.39h.23c.12,0,.61,0,1.08-.09s1-.09,1.15-.09h.29v.82l-.16,0-.71.09-1.13.16-.61.08a2.4,2.4,0,0,0,0,.46l0,.45-.38.08a1,1,0,0,0-.4.13,8.24,8.24,0,0,0,.22,1.1,8,8,0,0,0,.86-.25L6.36,29c4.89-1.47,8.72-2.65,8.79-2.72a12.46,12.46,0,0,0-1.88-.13c-1.49-.07-5.83-.29-10.47-.55L.21,25.5H0Z" transform="translate(0 -0.19)"/><path d="M34.23,28.62c.11.11,4.74,2.88,9.67,5.79,1.74,1,3.21,1.89,3.26,1.93s.1,0,.37-.47c.14-.28.26-.53.26-.54l-.37-.18a1,1,0,0,1-.37-.22,3.41,3.41,0,0,1,.15-.41,1,1,0,0,0,.12-.4s-.56-.24-1.21-.5l-1.23-.51a3.29,3.29,0,0,1,.23-.79,16.89,16.89,0,0,1,2,.68,2.28,2.28,0,0,0,.58.17s.08-.19.14-.37a1.66,1.66,0,0,1,.16-.36,1.16,1.16,0,0,1,.35,0c.53.11.49.14.65-.49a3.63,3.63,0,0,0,.12-.56s-.65-.14-1.43-.28l-3.83-.72C33.57,28.47,34.19,28.59,34.23,28.62Z" transform="translate(0 -0.19)"/><path d="M14.54,28.85c-2.69.48-4.21.76-8.59,1.61l-3.26.62-1.6.3-.27.05.2.71.2.71H2l.26.52a5.34,5.34,0,0,0,.39.65l.11.14L2.78,34a3.14,3.14,0,0,0,.13-1c0-.71.11-.95.51-1.15A1,1,0,0,1,4,31.75c.61,0,1,.38,1.29,1.17a4.75,4.75,0,0,1,.19,1l-.38,0H4.69l-.1-.44c-.13-.62-.28-.82-.62-.79H3.8l0,.74a2.31,2.31,0,0,1-.1.91,1,1,0,0,1-.83.51,3,3,0,0,1-.55-.1,1,1,0,0,0-.4-.06c0,.06.72,1.53.79,1.62s.23,0,1.94-1l5.8-3.44c3.49-2.06,4.83-2.88,5-3.07S15.57,28.67,14.54,28.85Z" transform="translate(0 -0.19)"/><path d="M15,31.54,9.77,33.93c-1.89.87-4.16,1.91-5.06,2.31S3.08,37,3.08,37s.07.18.15.37.18.33.23.33.87-.21,1.85-.47,1.78-.44,1.8-.42a2.78,2.78,0,0,1,.46.74c0,.13,0,.2-.35.71-.2.3-.67,1-1,1.49s-.66.94-.66,1a2,2,0,0,0,.25.35l.24.31.2-.17C7,40.57,17,30.69,16.85,30.71Z" transform="translate(0 -0.19)"/><path d="M33.34,30.9c.09.17,2.71,2.8,4.93,5,1.33,1.28,3.13,3.05,4,3.93l1.6,1.59.34-.37c.28-.31.91-1.09,1-1.24a14.13,14.13,0,0,0-2.13-1.63l-.74-.53c-.05,0,.2-.39.41-.59s.15-.12.19-.09c.32.23,2.84,1.91,2.87,1.91a14.08,14.08,0,0,0,1-1.66L47,37l-.46-.21L42.61,35c-4.58-2.11-8.32-3.8-9.25-4.18C33.31,30.83,33.31,30.84,33.34,30.9Z" transform="translate(0 -0.19)"/><path d="M32.15,33.54c.34.57,1,1.72,1.55,2.55,2.36,3.81,3.52,5.69,4.07,6.6.67,1.1,1.06,1.71,1.48,2.31l.28.41.41-.28a2.63,2.63,0,0,0,.41-.31,3.72,3.72,0,0,0-.19-.42L40,44l.3-.31.31-.32-.51-.57a19,19,0,0,1-1.2-1.48,4,4,0,0,1,.62-.54s1.23,1.31,1.51,1.64l.18.22.28-.1a1.29,1.29,0,0,1,1,0l.24.1.32-.34a1.93,1.93,0,0,0,.31-.38,15.72,15.72,0,0,0-1.53-1.35L39.93,39.1l-3.67-2.91c-2.62-2.08-4.67-3.69-4.72-3.69S31.8,33,32.15,33.54Z" transform="translate(0 -0.19)"/><path d="M18.22,32.67l-1.25,1c-1.15.89-3.35,2.63-5.53,4.37L8.35,40.46c-1,.77-1.8,1.43-1.81,1.46s1.78,1.83,1.91,1.91.19-.09.74-.72c.37-.41.78-.88.92-1l.25-.29L10,41.41c-.22-.19-.47-.43-.57-.52l-.17-.15.26-.29a1.57,1.57,0,0,1,.29-.27s1.27,1.09,1.62,1.42l.16.15-1.11,1.37c-.61.75-1.11,1.38-1.11,1.4a2.08,2.08,0,0,0,.4.35,4.11,4.11,0,0,0,.77.54,5.29,5.29,0,0,0,.52-.78c.45-.76.83-1.36,4.31-7,2.09-3.39,3.1-5.07,3.06-5.07A.57.57,0,0,0,18.22,32.67Z" transform="translate(0 -0.19)"/><path d="M29.6,34s.1.34.21.67c.29,1,.9,2.9,1.82,5.73,1.19,3.71,1.49,4.66,2,6.35.25.82.47,1.51.48,1.54s.13,0,.43-.1a8.41,8.41,0,0,0,1.56-.73s-.36-.75-.79-1.61-.79-1.59-.78-1.6l.38-.21.38-.19.22.4.87,1.57a10.51,10.51,0,0,0,.69,1.17,12.68,12.68,0,0,0,1.79-1.13s-.21-.29-.45-.6-1.58-2-3-3.83C32,36.86,29.65,33.9,29.6,33.9S29.59,33.93,29.6,34Z" transform="translate(0 -0.19)"/><path d="M20.05,34.31c-.45.51-.64.76-3.85,4.91-1.77,2.28-3.64,4.7-4.17,5.37-.76,1-.93,1.24-.89,1.28a23.84,23.84,0,0,0,2.34,1.37,1.42,1.42,0,0,0,.22-.36l.62-1.21c.24-.46.44-.85.44-.87a3,3,0,0,0-.38-.24l-.66-.38L13.45,44l.19-.31.21-.34a2.66,2.66,0,0,1,.52.26l1,.53.52.27a7.39,7.39,0,0,1-.55,1.31c-.93,2-.93,2-.85,2s1.26.53,1.3.53.15-.4.31-.91L17.5,43c1.73-5.38,2.85-8.95,2.8-9Z" transform="translate(0 -0.19)"/><path d="M27.36,34.92c0,.28.13,2.26.39,6,.35,4.86.53,7.86.53,8.56v.21h.84l0-.4c0-.23,0-.43,0-.45a.82.82,0,0,1,.34-.1,4.6,4.6,0,0,0,1.09-.28c.08-.07,0-.37-.17-.43s-.28-.06-.77.07a1.68,1.68,0,0,1-.5.08,1.84,1.84,0,0,1-.09-.67l.36-.1a4.74,4.74,0,0,0,1-.35s-.07-.09-.15-.15a.61.61,0,0,0-.42-.14,4.19,4.19,0,0,0-1,.1c-.06,0-.09-.05-.14-.3a2.3,2.3,0,0,1-.08-.38c0-.05.11-.09.41-.15L30,45.84l.66-.15.15.45a1.62,1.62,0,0,0,.19.45,3,3,0,0,0,.7-.23,1.6,1.6,0,0,0,.57-.47,17.51,17.51,0,0,0-.72-1.78c-.42-.93-1.1-2.49-1.52-3.45-.81-1.85-1.85-4.16-2.37-5.25C27.4,34.84,27.36,34.78,27.36,34.92Z" transform="translate(0 -0.19)"/><path d="M22.27,35.45c-.62,1.36-1.17,2.59-2.51,5.63-1.45,3.29-2.46,5.54-3,6.71l-.33.7.14.08a10,10,0,0,0,2,.59s.45-1.61.71-2.62c.15-.6.2-.72.27-.73a4.52,4.52,0,0,1,.78.09s-.16.85-.48,2.26c-.16.69-.27,1.26-.26,1.28a15.18,15.18,0,0,0,2.07.35c0-.11.26-3.84.44-6.4.32-4.58.54-8.27.51-8.49S22.48,35,22.27,35.45Z" transform="translate(0 -0.19)"/><path d="M25,35.09s-.08.41-.18.89c-.31,1.57-.73,3.84-1.46,8.06l-.87,5c-.09.45-.15.83-.15.84a10.43,10.43,0,0,0,1.41.14,19.21,19.21,0,0,0,3.89-.15s-.37-2.08-.8-4.55C25.34,36.75,25,34.84,25,35.09Zm.35,12.25a.87.87,0,0,1,.57.82.9.9,0,0,1-.49.84.91.91,0,0,1-1.07-.14.82.82,0,0,1-.27-.76.78.78,0,0,1,.47-.74A.82.82,0,0,1,25.35,47.34Z" transform="translate(0 -0.19)"/><path d="M5.84,38c-.68.19-1.84.54-1.87.57a12.55,12.55,0,0,0,.9,1.34,17.61,17.61,0,0,0,1.58-2C6.45,37.83,6.46,37.83,5.84,38Z" transform="translate(0 -0.19)"/><path d="M32.64,47.48c-.09.25-.22.65-.3.88-.13.41-.13.43-.05.49s.36.06.76-.12a4.26,4.26,0,0,1,.44-.17s0,0,0,0c-.07-.2-.67-1.49-.7-1.49A2.37,2.37,0,0,0,32.64,47.48Z" transform="translate(0 -0.19)"/><path d="M31.49,47.2a1.5,1.5,0,0,0-.32.17,8.25,8.25,0,0,0,.3,1.05c0,.07.1-.12.33-1,.07-.27.09-.4.05-.4Z" transform="translate(0 -0.19)"/><path d="M20.71,20.82V28l.1.24a1.94,1.94,0,0,0,1.08,1.06,2.91,2.91,0,0,0,.9.13c1,.06,1.06.08,1.56.42a3.23,3.23,0,0,0,.57.3c.18,0,.4-.07.68-.33a2.91,2.91,0,0,1,.33-.26,4.77,4.77,0,0,1,.9-.09c1.17-.06,1.46-.16,1.92-.65a1.92,1.92,0,0,0,.48-1c0-.11,0-1.68,0-3.59V20.82Zm7.84,3.58c0,1.58,0,2.88,0,3a1.71,1.71,0,0,1-.36.78l0,0c-.38.41-.62.49-1.6.54a3.75,3.75,0,0,0-.74.08,1.54,1.54,0,0,0-.27.21c-.24.22-.42.31-.57.28a3.18,3.18,0,0,1-.47-.26c-.41-.27-.5-.29-1.29-.34a2.73,2.73,0,0,1-.75-.1,1.63,1.63,0,0,1-.89-.88l-.08-.2V21.6h7.1Z" transform="translate(0 -0.19)"/><path class="cls-2" d="M28.55,21.6v2.8c0,1.58,0,2.88,0,3a1.71,1.71,0,0,1-.36.78L21.45,21.6Z" transform="translate(0 -0.19)"/><path class="cls-3" d="M28.16,28.16l0,0c-.38.41-.62.49-1.6.54a3.75,3.75,0,0,0-.74.08,1.54,1.54,0,0,0-.27.21c-.24.22-.42.31-.57.28a3.18,3.18,0,0,1-.47-.26c-.41-.27-.5-.29-1.29-.34a2.73,2.73,0,0,1-.75-.1,1.63,1.63,0,0,1-.89-.88l-.08-.2V21.6Z" transform="translate(0 -0.19)"/></svg>